# Blender v2.93.4 OBJ File: 'Портал куб.blend'
# www.blender.org
mtllib Портал куб.mtl
v 1.000000 1.000000 -1.000000
v 1.000000 -1.000000 -1.000000
v 1.000000 1.000000 1.000000
v 1.000000 -1.000000 1.000000
v -1.000000 1.000000 -1.000000
v -1.000000 -1.000000 -1.000000
v -1.000000 1.000000 1.000000
v -1.000000 -1.000000 1.000000
vt 0.227842 0.513805
vt 0.064649 0.513959
vt 0.064388 0.297773
vt 0.227581 0.297359
vt 0.390775 0.297465
vt 0.227906 0.081173
vt 0.390318 0.081019
vt 0.390777 0.947064
vt 0.227779 0.947218
vt 0.227713 0.730511
vt 0.390711 0.730357
vt 0.553448 0.514278
vt 0.390645 0.513911
vt 0.553382 0.296790
vn 0.0000 1.0000 0.0000
vn 0.0000 0.0000 1.0000
vn -1.0000 0.0000 0.0000
vn 0.0000 -1.0000 0.0000
vn 1.0000 0.0000 0.0000
vn 0.0000 0.0000 -1.0000
usemtl Материал
s off
f 1/1/1 5/2/1 7/3/1 3/4/1
f 4/5/2 3/4/2 7/6/2 8/7/2
f 8/8/3 7/9/3 5/10/3 6/11/3
f 6/12/4 2/13/4 4/5/4 8/14/4
f 2/13/5 1/1/5 3/4/5 4/5/5
f 6/11/6 5/10/6 1/1/6 2/13/6
